<svg xmlns="http://www.w3.org/2000/svg" version="1.1" xmlns:xlink="http://www.w3.org/1999/xlink" width="1000" height="1000"><style>
    #light-icon {
      display: inline;
    }
    #dark-icon {
      display: none;
    }

    @media (prefers-color-scheme: dark) {
      #light-icon {
        display: none;
      }
      #dark-icon {
        display: inline;
      }
    }
  </style><g id="light-icon"><svg xmlns="http://www.w3.org/2000/svg" version="1.1" xmlns:xlink="http://www.w3.org/1999/xlink" width="1000" height="1000"><g clip-path="url(#SvgjsClipPath1229)"><rect width="1000" height="1000" fill="#000000"></rect><g transform="matrix(2,0,0,2,0,0)"><svg xmlns="http://www.w3.org/2000/svg" version="1.1" xmlns:xlink="http://www.w3.org/1999/xlink" width="500" height="500"><svg width="500" height="500" viewBox="0 0 500 500" fill="none" xmlns="http://www.w3.org/2000/svg">
<rect width="500" height="500" fill="black"></rect>
<path d="M254.091 356.749C251.638 358.145 248.631 358.145 246.178 356.749L170.683 313.792C168.453 312.524 166.967 310.263 166.687 307.714L150.976 164.875C150.455 160.139 154.164 156 158.928 156H341.341C346.105 156 349.814 160.139 349.293 164.875L333.582 307.714C333.302 310.263 331.816 312.524 329.587 313.792L254.091 356.749Z" fill="white"></path>
</svg></svg></g></g><defs><clipPath id="SvgjsClipPath1229"><rect width="1000" height="1000" x="0" y="0" rx="500" ry="500"></rect></clipPath></defs></svg></g><g id="dark-icon"><svg xmlns="http://www.w3.org/2000/svg" version="1.1" xmlns:xlink="http://www.w3.org/1999/xlink" width="1000" height="1000"><g clip-path="url(#SvgjsClipPath1230)"><rect width="1000" height="1000" fill="#000000"></rect><g transform="matrix(2,0,0,2,0,0)"><svg xmlns="http://www.w3.org/2000/svg" version="1.1" xmlns:xlink="http://www.w3.org/1999/xlink" width="500" height="500"><svg width="500" height="500" viewBox="0 0 500 500" fill="none" xmlns="http://www.w3.org/2000/svg">
<rect width="500" height="500" fill="black"></rect>
<path d="M254.091 356.749C251.638 358.145 248.631 358.145 246.178 356.749L170.683 313.792C168.453 312.524 166.967 310.263 166.687 307.714L150.976 164.875C150.455 160.139 154.164 156 158.928 156H341.341C346.105 156 349.814 160.139 349.293 164.875L333.582 307.714C333.302 310.263 331.816 312.524 329.587 313.792L254.091 356.749Z" fill="white"></path>
</svg></svg></g></g><defs><clipPath id="SvgjsClipPath1230"><rect width="1000" height="1000" x="0" y="0" rx="500" ry="500"></rect></clipPath></defs></svg></g></svg>